<svg width="190" height="48" viewBox="0 0 190 48" fill="none" xmlns="http://www.w3.org/2000/svg">
<path d="M15.9967 22.0305H10.8315V47.8782H15.9967V22.0305Z" fill="#CF3C89"/>
<path d="M4.83569 4.99449V47.8495H0V0.187458C0.329673 0.10334 0.666799 0.0517509 1.00654 0.033432C7.62248 0.033432 17.8419 -0.0417899 24.4471 0.033432C31.543 0.130146 37.7005 5.55687 38.4921 12.2659C39.427 20.0675 35.1967 26.8053 28.0219 28.7431C26.29 29.1439 24.5197 29.3553 22.7421 29.3736C20.2347 29.4774 14.1453 29.3986 11.5842 29.3986C10.5812 29.3986 8.84036 29.4738 8.41769 29.4452V24.2656H10.66C13.8587 24.2656 20.6466 24.3086 23.8418 24.2656C30.6762 24.1474 33.6815 21.0418 33.5991 14.3184C33.5239 8.06427 30.1855 5.00524 23.6018 5.00524C18.0318 4.98733 10.6636 4.99449 4.83569 4.99449Z" fill="#31A1D3"/>
<path d="M42.8517 1.96069H46.9996V48.0001C45.5131 46.5135 30.2036 30.9175 29.3332 30.0507C26.4067 33.6148 16.2912 47.6884 16.1157 47.932C15.1951 48.0072 11.6023 47.692 10.8322 47.864C10.9468 47.7171 10.474 48.0287 11.0901 47.1225C15.0303 41.4307 27.4992 24.8747 29.1362 22.4067C30.0532 23.3273 42.8517 38.0385 42.8517 38.0385V1.96069Z" fill="#D60B52"/>
<path d="M57.0501 4.32131H60.8152C62.8519 4.32131 64.3182 4.51147 65.214 4.89177C66.1183 5.26363 66.8282 5.87212 67.3438 6.71725C67.8677 7.55392 68.1297 8.55962 68.1297 9.73435C68.1297 11.0358 67.7874 12.1176 67.1029 12.9796C66.4268 13.8417 65.5056 14.4417 64.3393 14.7798C63.6548 14.9741 62.4082 15.0713 60.5996 15.0713V22.969H57.0501V4.32131ZM60.5996 11.6105H61.7279C62.6153 11.6105 63.2322 11.5471 63.5787 11.4204C63.9252 11.2936 64.1957 11.0866 64.39 10.7992C64.5929 10.5034 64.6943 10.1485 64.6943 9.73435C64.6943 9.01599 64.4154 8.49201 63.8576 8.16241C63.4519 7.91733 62.6998 7.79478 61.6011 7.79478H60.5996V11.6105Z" fill="#31A1D3"/>
<path d="M70.4242 9.17657H73.3906V10.9133C73.7118 10.2287 74.1386 9.709 74.671 9.35404C75.2034 8.99909 75.7866 8.82161 76.4204 8.82161C76.8683 8.82161 77.3374 8.93993 77.8276 9.17657L76.75 12.1556C76.3444 11.9528 76.0105 11.8514 75.7485 11.8514C75.2161 11.8514 74.764 12.181 74.3921 12.8402C74.0287 13.4994 73.847 14.7924 73.847 16.7193L73.8597 17.3912V22.969H70.4242V9.17657Z" fill="#31A1D3"/>
<path d="M80.908 3.49731C81.5165 3.49731 82.0363 3.71705 82.4673 4.15651C82.9068 4.59598 83.1265 5.12841 83.1265 5.7538C83.1265 6.37075 82.911 6.89895 82.48 7.33842C82.049 7.76943 81.5334 7.98494 80.9334 7.98494C80.3165 7.98494 79.7883 7.7652 79.3488 7.32574C78.9178 6.87782 78.7023 6.33694 78.7023 5.70309C78.7023 5.0946 78.9178 4.57485 79.3488 4.14384C79.7798 3.71282 80.2996 3.49731 80.908 3.49731ZM79.1713 9.17657H82.6448V22.969H79.1713V9.17657Z" fill="#31A1D3"/>
<path d="M85.7633 9.17657H89.2368V10.7612C89.8284 10.1104 90.4833 9.62448 91.2017 9.30333C91.9285 8.98219 92.7187 8.82161 93.5723 8.82161C94.4343 8.82161 95.2118 9.0329 95.9048 9.45546C96.5978 9.87802 97.1556 10.495 97.5782 11.3063C98.1275 10.495 98.7994 9.87802 99.5938 9.45546C100.397 9.0329 101.271 8.82161 102.218 8.82161C103.198 8.82161 104.06 9.0498 104.804 9.50617C105.548 9.96253 106.08 10.5583 106.401 11.2936C106.731 12.0289 106.896 13.2247 106.896 14.8812V22.969H103.41V15.9714C103.41 14.4079 103.215 13.3515 102.826 12.8022C102.438 12.2444 101.855 11.9655 101.077 11.9655C100.485 11.9655 99.953 12.1345 99.4797 12.4726C99.0149 12.8106 98.6684 13.2797 98.4402 13.8797C98.212 14.4713 98.0979 15.4263 98.0979 16.7447V22.969H94.6118V16.2883C94.6118 15.0544 94.5188 14.1628 94.3329 13.6135C94.1554 13.0557 93.885 12.6416 93.5216 12.3711C93.1582 12.1007 92.7187 11.9655 92.2032 11.9655C91.6285 11.9655 91.1045 12.1387 90.6312 12.4852C90.1664 12.8233 89.8157 13.3008 89.5791 13.9177C89.3509 14.5347 89.2368 15.5066 89.2368 16.8334V22.969H85.7633V9.17657Z" fill="#31A1D3"/>
<path d="M124.022 17.0743H112.905C113.065 18.0546 113.492 18.8364 114.185 19.4195C114.886 19.9942 115.778 20.2815 116.86 20.2815C118.153 20.2815 119.264 19.8294 120.194 18.9251L123.109 20.2942C122.383 21.3253 121.512 22.0901 120.498 22.5887C119.484 23.0789 118.28 23.324 116.885 23.324C114.722 23.324 112.959 22.6437 111.599 21.283C110.238 19.9139 109.558 18.2025 109.558 16.1489C109.558 14.0445 110.234 12.2993 111.586 10.9133C112.947 9.51884 114.65 8.82161 116.695 8.82161C118.867 8.82161 120.633 9.51884 121.994 10.9133C123.355 12.2993 124.035 14.1332 124.035 16.4151L124.022 17.0743ZM120.549 14.3487C120.321 13.5797 119.868 12.9543 119.192 12.4726C118.525 11.9908 117.747 11.75 116.86 11.75C115.896 11.75 115.051 12.0204 114.324 12.5613C113.868 12.8993 113.445 13.4952 113.057 14.3487H120.549Z" fill="#31A1D3"/>
<path d="M125.303 9.17657H128.687L131.464 17.0236L134.455 9.17657H136.522L139.45 16.9348L142.226 9.17657H145.636L140.604 22.969H138.41L135.469 15.1094L132.44 22.969H130.272L125.303 9.17657Z" fill="#31A1D3"/>
<path d="M157.793 9.17657H161.242V22.969H157.793V21.5112C157.117 22.1535 156.437 22.6183 155.753 22.9056C155.076 23.1845 154.341 23.324 153.547 23.324C151.763 23.324 150.221 22.6352 148.92 21.2577C147.618 19.8716 146.967 18.1518 146.967 16.0982C146.967 13.9684 147.597 12.2232 148.856 10.8626C150.116 9.50194 151.645 8.82161 153.445 8.82161C154.274 8.82161 155.051 8.97796 155.778 9.29066C156.505 9.60336 157.177 10.0724 157.793 10.6978V9.17657ZM154.155 12.0162C153.082 12.0162 152.19 12.3965 151.48 13.1571C150.77 13.9093 150.416 14.8769 150.416 16.0601C150.416 17.2518 150.775 18.2321 151.493 19.0012C152.22 19.7702 153.111 20.1548 154.168 20.1548C155.258 20.1548 156.162 19.7787 156.881 19.0265C157.599 18.2659 157.958 17.2729 157.958 16.0474C157.958 14.8474 157.599 13.8755 156.881 13.1318C156.162 12.388 155.254 12.0162 154.155 12.0162Z" fill="#31A1D3"/>
<path d="M163.207 9.17657H166.743L170.331 17.8349L174.286 9.17657H177.836L169.19 28.0144H165.615L168.455 21.9422L163.207 9.17657Z" fill="#31A1D3"/>
<path d="M179.205 9.17657H189.79L183.578 20.0407H189.435V22.969H178.254L184.491 12.1049H179.205V9.17657Z" fill="#31A1D3"/>
<path d="M57.8328 34.0719H58.9993V45.7447H57.8328V34.0719Z" fill="#1D1D1B"/>
<path d="M61.4989 37.1112H62.6099V38.6585C63.0542 38.066 63.5462 37.6243 64.0858 37.3333C64.6254 37.0371 65.2126 36.889 65.8474 36.889C66.4928 36.889 67.0642 37.053 67.5615 37.381C68.064 37.7089 68.4343 38.1507 68.6724 38.7061C68.9105 39.2616 69.0295 40.1266 69.0295 41.301V45.7447H67.9265V41.6263C67.9265 40.6318 67.8842 39.9678 67.7995 39.6346C67.6673 39.0632 67.4186 38.6347 67.0536 38.3491C66.6886 38.0581 66.2125 37.9126 65.6253 37.9126C64.9534 37.9126 64.3503 38.1348 63.816 38.5792C63.287 39.0236 62.9378 39.5737 62.7686 40.2297C62.6628 40.6582 62.6099 41.4412 62.6099 42.5786V45.7447H61.4989V37.1112Z" fill="#1D1D1B"/>
<path d="M74.973 33.7783V34.8655C74.5657 34.6909 74.2165 34.6036 73.9255 34.6036C73.7087 34.6036 73.5288 34.6486 73.386 34.7385C73.2431 34.8232 73.1532 34.9237 73.1162 35.04C73.0791 35.1511 73.0606 35.4527 73.0606 35.9447V37.1112H74.8619V38.0634H73.0527V45.7447H71.9417V38.0634H70.807V37.1112H71.9417V35.7622C71.9417 35.1432 71.9973 34.7015 72.1084 34.437C72.2248 34.1725 72.4178 33.9609 72.6876 33.8021C72.9627 33.6382 73.2934 33.5562 73.6796 33.5562C74.0393 33.5562 74.4704 33.6302 74.973 33.7783Z" fill="#1D1D1B"/>
<path d="M80.615 36.889C81.9428 36.889 83.0432 37.3704 83.9161 38.3332C84.7096 39.2114 85.1063 40.2509 85.1063 41.4517C85.1063 42.6579 84.6858 43.7133 83.8446 44.6179C83.0088 45.5172 81.9322 45.9669 80.615 45.9669C79.2924 45.9669 78.2106 45.5172 77.3695 44.6179C76.5336 43.7133 76.1157 42.6579 76.1157 41.4517C76.1157 40.2562 76.5124 39.2193 77.306 38.3411C78.1789 37.373 79.2819 36.889 80.615 36.889ZM80.615 37.9761C79.6945 37.9761 78.9036 38.3173 78.2423 38.9997C77.5811 39.6822 77.2504 40.5074 77.2504 41.4756C77.2504 42.0998 77.4012 42.6817 77.7027 43.2213C78.0043 43.7609 78.4116 44.1788 78.9248 44.4751C79.4379 44.766 80.0013 44.9115 80.615 44.9115C81.2286 44.9115 81.792 44.766 82.3052 44.4751C82.8183 44.1788 83.2257 43.7609 83.5272 43.2213C83.8288 42.6817 83.9795 42.0998 83.9795 41.4756C83.9795 40.5074 83.6463 39.6822 82.9797 38.9997C82.3184 38.3173 81.5302 37.9761 80.615 37.9761Z" fill="#1D1D1B"/>
<path d="M88.1455 33.9053H89.2644V37.1112H91.0261V38.0634H89.2644V45.7447H88.1455V38.0634H86.6299V37.1112H88.1455V33.9053Z" fill="#1D1D1B"/>
<path d="M99.9532 42.8801L100.89 43.3721C100.583 43.9752 100.228 44.4619 99.8263 44.8322C99.4242 45.2025 98.9719 45.4855 98.4693 45.6812C97.9668 45.8717 97.3981 45.9669 96.7633 45.9669C95.3561 45.9669 94.2557 45.5067 93.4622 44.5862C92.6687 43.6604 92.2719 42.6156 92.2719 41.4517C92.2719 40.3567 92.6078 39.3806 93.2797 38.5236C94.1314 37.4339 95.2714 36.889 96.6998 36.889C98.1704 36.889 99.3449 37.4471 100.223 38.5633C100.847 39.3515 101.165 40.3355 101.175 41.5152H93.4146C93.4357 42.5204 93.7558 43.3456 94.3747 43.991C94.9937 44.6311 95.7581 44.9512 96.668 44.9512C97.1071 44.9512 97.533 44.8745 97.9456 44.7211C98.3635 44.5677 98.718 44.364 99.0089 44.1101C99.2999 43.8561 99.6147 43.4461 99.9532 42.8801ZM99.9532 40.5551C99.8051 39.9626 99.5882 39.4891 99.3025 39.1346C99.0222 38.7802 98.6492 38.4945 98.1837 38.2776C97.7181 38.0607 97.2288 37.9523 96.7156 37.9523C95.8692 37.9523 95.1418 38.2247 94.5334 38.7696C94.0891 39.1664 93.7531 39.7615 93.5257 40.5551H99.9532Z" fill="#1D1D1B"/>
<path d="M111.634 38.9045L110.753 39.4521C109.991 38.4416 108.952 37.9364 107.635 37.9364C106.582 37.9364 105.706 38.275 105.008 38.9521C104.315 39.6293 103.968 40.4519 103.968 41.42C103.968 42.0495 104.127 42.642 104.445 43.1975C104.767 43.753 105.206 44.1841 105.762 44.491C106.323 44.7978 106.949 44.9512 107.643 44.9512C108.912 44.9512 109.949 44.446 110.753 43.4356L111.634 44.0148C111.221 44.6338 110.666 45.1152 109.968 45.4591C109.275 45.7976 108.484 45.9669 107.595 45.9669C106.23 45.9669 105.098 45.5331 104.199 44.6655C103.299 43.7979 102.85 42.7425 102.85 41.4994C102.85 40.6635 103.059 39.8885 103.476 39.1743C103.9 38.4549 104.479 37.8941 105.214 37.492C105.95 37.09 106.772 36.889 107.682 36.889C108.254 36.889 108.804 36.9763 109.333 37.1508C109.867 37.3254 110.319 37.5529 110.69 37.8333C111.06 38.1136 111.375 38.4707 111.634 38.9045Z" fill="#1D1D1B"/>
<path d="M113.776 33.7783H114.887V38.6585C115.337 38.066 115.832 37.6243 116.371 37.3333C116.911 37.0371 117.495 36.889 118.125 36.889C118.77 36.889 119.342 37.053 119.839 37.381C120.342 37.7089 120.712 38.1507 120.95 38.7061C121.188 39.2563 121.307 40.1213 121.307 41.301V45.7447H120.196V41.6263C120.196 40.6318 120.156 39.9678 120.077 39.6346C119.94 39.0632 119.688 38.6347 119.323 38.3491C118.963 38.0581 118.49 37.9126 117.903 37.9126C117.231 37.9126 116.628 38.1348 116.094 38.5792C115.565 39.0236 115.215 39.5737 115.046 40.2297C114.94 40.6529 114.887 41.4359 114.887 42.5786V45.7447H113.776V33.7783Z" fill="#1D1D1B"/>
<path d="M128.377 34.0719H130.702C132.036 34.0719 132.935 34.1301 133.4 34.2465C134.067 34.4105 134.612 34.7491 135.035 35.2622C135.458 35.7701 135.67 36.4102 135.67 37.1826C135.67 37.9602 135.464 38.603 135.051 39.1108C134.638 39.6134 134.07 39.952 133.345 40.1266C132.816 40.2535 131.827 40.317 130.377 40.317H129.544V45.7447H128.377V34.0719ZM129.544 35.2067V39.1743L131.52 39.1981C132.319 39.1981 132.903 39.1267 133.273 38.9839C133.644 38.8358 133.935 38.6003 134.146 38.2776C134.358 37.9496 134.464 37.5846 134.464 37.1826C134.464 36.7911 134.358 36.434 134.146 36.1113C133.935 35.7833 133.654 35.5505 133.305 35.413C132.961 35.2755 132.395 35.2067 131.607 35.2067H129.544Z" fill="#1D1D1B"/>
<path d="M137.003 37.1112H138.185L141.074 43.3959L143.938 37.1112H145.129L141.177 45.7447H140.979L137.003 37.1112Z" fill="#1D1D1B"/>
<path d="M147.803 33.9053H148.922V37.1112H150.683V38.0634H148.922V45.7447H147.803V38.0634H146.287V37.1112H147.803V33.9053Z" fill="#1D1D1B"/>
<path d="M153.564 43.999C153.834 43.999 154.064 44.0942 154.254 44.2846C154.445 44.4751 154.54 44.7078 154.54 44.9829C154.54 45.2527 154.445 45.4855 154.254 45.6812C154.064 45.8717 153.834 45.9669 153.564 45.9669C153.294 45.9669 153.064 45.8717 152.874 45.6812C152.683 45.4855 152.588 45.2527 152.588 44.9829C152.588 44.7078 152.683 44.4751 152.874 44.2846C153.064 44.0942 153.294 43.999 153.564 43.999Z" fill="#1D1D1B"/>
<path d="M161.539 34.0719H162.713V44.6179H167.197V45.7447H161.539V34.0719Z" fill="#1D1D1B"/>
<path d="M169.831 33.9053H170.95V37.1112H172.712V38.0634H170.95V45.7447H169.831V38.0634H168.316V37.1112H169.831V33.9053Z" fill="#1D1D1B"/>
<path d="M182.988 33.7783V45.7447H181.893V44.2608C181.427 44.8269 180.904 45.2527 180.322 45.5384C179.745 45.8241 179.113 45.9669 178.425 45.9669C177.203 45.9669 176.158 45.5252 175.291 44.6417C174.428 43.753 173.997 42.6738 173.997 41.4041C173.997 40.1609 174.434 39.0976 175.307 38.2142C176.179 37.3307 177.23 36.889 178.457 36.889C179.166 36.889 179.806 37.0397 180.377 37.3413C180.954 37.6428 181.459 38.0951 181.893 38.6982V33.7783H182.988ZM178.544 37.9602C177.925 37.9602 177.354 38.1136 176.83 38.4205C176.306 38.722 175.888 39.1479 175.576 39.6981C175.27 40.2482 175.116 40.8301 175.116 41.4438C175.116 42.0522 175.272 42.6341 175.584 43.1896C175.896 43.745 176.314 44.1788 176.838 44.491C177.367 44.7978 177.933 44.9512 178.536 44.9512C179.145 44.9512 179.721 44.7978 180.266 44.491C180.811 44.1841 181.229 43.7688 181.52 43.2451C181.816 42.7214 181.964 42.1315 181.964 41.4756C181.964 40.4757 181.634 39.6399 180.972 38.968C180.316 38.2962 179.507 37.9602 178.544 37.9602Z" fill="#1D1D1B"/>
<path d="M186.733 43.999C187.003 43.999 187.233 44.0942 187.424 44.2846C187.614 44.4751 187.709 44.7078 187.709 44.9829C187.709 45.2527 187.614 45.4855 187.424 45.6812C187.233 45.8717 187.003 45.9669 186.733 45.9669C186.464 45.9669 186.233 45.8717 186.043 45.6812C185.853 45.4855 185.757 45.2527 185.757 44.9829C185.757 44.7078 185.853 44.4751 186.043 44.2846C186.233 44.0942 186.464 43.999 186.733 43.999Z" fill="#1D1D1B"/>
</svg>
