<svg width="319" height="48" viewBox="0 0 319 48" fill="none" xmlns="http://www.w3.org/2000/svg">
<rect x="23.9999" y="1.41421" width="31.9411" height="31.9411" transform="rotate(45 23.9999 1.41421)" fill="#5271FF" stroke="#7ED957" stroke-width="2"/>
<path d="M56.2569 3.32881H33.2881L55.4247 23.6346L55.5912 24.4668L33.2881 44.4396H56.2569L79.2257 23.9674L56.2569 3.32881Z" fill="#7ED957" stroke="#E5E5E5" stroke-width="2"/>
<path d="M98.2239 13.3818V16.6334H93.5682V30.6251H90.1688V16.6334H85.5378V13.3818H98.2239Z" fill="#1D1D1B"/>
<path d="M101.095 20.4269C101.391 19.6387 101.875 19.0475 102.549 18.6533C103.238 18.2592 104.002 18.0621 104.839 18.0621V21.6093C103.871 21.4944 103 21.6914 102.228 22.2005C101.473 22.7096 101.095 23.5553 101.095 24.7377V30.6251H97.9175V18.3085H101.095V20.4269Z" fill="#1D1D1B"/>
<path d="M115.109 18.3085H118.286V30.6251H115.109V29.1717C114.156 30.3705 112.818 30.9699 111.094 30.9699C109.451 30.9699 108.039 30.3459 106.857 29.0978C105.691 27.8333 105.108 26.2896 105.108 24.4668C105.108 22.6439 105.691 21.1084 106.857 19.8603C108.039 18.5958 109.451 17.9636 111.094 17.9636C112.818 17.9636 114.156 18.563 115.109 19.7618V18.3085ZM109.246 26.9793C109.887 27.6198 110.699 27.94 111.685 27.94C112.67 27.94 113.483 27.6198 114.123 26.9793C114.78 26.3225 115.109 25.4849 115.109 24.4668C115.109 23.4486 114.78 22.6193 114.123 21.9788C113.483 21.3219 112.67 20.9935 111.685 20.9935C110.699 20.9935 109.887 21.3219 109.246 21.9788C108.606 22.6193 108.285 23.4486 108.285 24.4668C108.285 25.4849 108.606 26.3225 109.246 26.9793Z" fill="#1D1D1B"/>
<path d="M127.523 17.9636C128.87 17.9636 129.978 18.4152 130.849 19.3184C131.736 20.2216 132.179 21.4697 132.179 23.0627V30.6251H129.001V23.4568C129.001 22.6357 128.78 22.0116 128.336 21.5847C127.893 21.1413 127.302 20.9196 126.563 20.9196C125.742 20.9196 125.085 21.1741 124.592 21.6832C124.099 22.1923 123.853 22.9559 123.853 23.9741V30.6251H120.675V18.3085H123.853V19.6879C124.625 18.5384 125.848 17.9636 127.523 17.9636Z" fill="#1D1D1B"/>
<path d="M137.331 21.8064C137.331 22.1348 137.544 22.4058 137.971 22.6193C138.415 22.8163 138.949 22.997 139.573 23.1612C140.197 23.309 140.821 23.5061 141.445 23.7524C142.069 23.9823 142.594 24.3764 143.021 24.9348C143.465 25.4931 143.686 26.1911 143.686 27.0286C143.686 28.2931 143.21 29.2702 142.258 29.96C141.322 30.6333 140.147 30.9699 138.735 30.9699C136.206 30.9699 134.482 29.9928 133.562 28.0386L136.321 26.4867C136.682 27.5541 137.487 28.0878 138.735 28.0878C139.868 28.0878 140.435 27.7348 140.435 27.0286C140.435 26.7002 140.213 26.4374 139.77 26.2404C139.343 26.0269 138.817 25.838 138.193 25.6738C137.569 25.5096 136.945 25.3043 136.321 25.058C135.697 24.8116 135.163 24.4257 134.72 23.9002C134.293 23.3583 134.079 22.685 134.079 21.8803C134.079 20.665 134.523 19.7126 135.41 19.0228C136.313 18.3167 137.43 17.9636 138.76 17.9636C139.761 17.9636 140.673 18.1935 141.494 18.6533C142.315 19.0967 142.964 19.7372 143.44 20.5747L140.73 22.0527C140.336 21.2152 139.679 20.7964 138.76 20.7964C138.349 20.7964 138.004 20.8867 137.725 21.0674C137.462 21.248 137.331 21.4944 137.331 21.8064Z" fill="#1D1D1B"/>
<path d="M151.719 16.0915C149.979 15.9601 149.108 16.658 149.108 18.1853V18.3085H151.719V21.363H149.108V30.6251H145.931V21.363H144.157V18.3085H145.931V18.1853C145.931 16.4445 146.415 15.1226 147.384 14.2193C148.353 13.3161 149.798 12.922 151.719 13.037V16.0915Z" fill="#1D1D1B"/>
<path d="M162.72 29.0978C161.455 30.3459 159.912 30.9699 158.089 30.9699C156.266 30.9699 154.722 30.3459 153.458 29.0978C152.21 27.8333 151.586 26.2896 151.586 24.4668C151.586 22.6439 152.21 21.1084 153.458 19.8603C154.722 18.5958 156.266 17.9636 158.089 17.9636C159.912 17.9636 161.455 18.5958 162.72 19.8603C163.984 21.1084 164.617 22.6439 164.617 24.4668C164.617 26.2896 163.984 27.8333 162.72 29.0978ZM155.699 26.9054C156.34 27.5459 157.136 27.8661 158.089 27.8661C159.041 27.8661 159.838 27.5459 160.478 26.9054C161.119 26.265 161.439 25.4521 161.439 24.4668C161.439 23.4814 161.119 22.6685 160.478 22.0281C159.838 21.3876 159.041 21.0674 158.089 21.0674C157.136 21.0674 156.34 21.3876 155.699 22.0281C155.075 22.6685 154.763 23.4814 154.763 24.4668C154.763 25.4521 155.075 26.265 155.699 26.9054Z" fill="#1D1D1B"/>
<path d="M169.537 20.4269C169.833 19.6387 170.317 19.0475 170.99 18.6533C171.68 18.2592 172.444 18.0621 173.281 18.0621V21.6093C172.312 21.4944 171.442 21.6914 170.67 22.2005C169.915 22.7096 169.537 23.5553 169.537 24.7377V30.6251H166.359V18.3085H169.537V20.4269Z" fill="#1D1D1B"/>
<path d="M188.269 17.9636C189.681 17.9636 190.806 18.4234 191.644 19.3431C192.498 20.2627 192.925 21.4944 192.925 23.038V30.6251H189.747V23.2597C189.747 22.5207 189.567 21.946 189.205 21.5354C188.844 21.1249 188.335 20.9196 187.678 20.9196C186.955 20.9196 186.389 21.1577 185.978 21.6339C185.584 22.1102 185.387 22.7999 185.387 23.7031V30.6251H182.209V23.2597C182.209 22.5207 182.029 21.946 181.667 21.5354C181.306 21.1249 180.797 20.9196 180.14 20.9196C179.434 20.9196 178.868 21.1577 178.441 21.6339C178.03 22.1102 177.825 22.7999 177.825 23.7031V30.6251H174.647V18.3085H177.825V19.614C178.564 18.5137 179.705 17.9636 181.249 17.9636C182.76 17.9636 183.876 18.5548 184.599 19.7372C185.42 18.5548 186.643 17.9636 188.269 17.9636Z" fill="#1D1D1B"/>
<path d="M196.708 16.8305C196.182 16.8305 195.722 16.6416 195.328 16.2639C194.95 15.8698 194.762 15.41 194.762 14.8844C194.762 14.3589 194.95 13.8991 195.328 13.505C195.722 13.1109 196.182 12.9138 196.708 12.9138C197.25 12.9138 197.709 13.1109 198.087 13.505C198.481 13.8991 198.678 14.3589 198.678 14.8844C198.678 15.41 198.481 15.8698 198.087 16.2639C197.709 16.6416 197.25 16.8305 196.708 16.8305ZM195.131 30.6251V18.3085H198.309V30.6251H195.131Z" fill="#1D1D1B"/>
<path d="M207.573 17.9636C208.919 17.9636 210.028 18.4152 210.898 19.3184C211.785 20.2216 212.228 21.4697 212.228 23.0627V30.6251H209.051V23.4568C209.051 22.6357 208.829 22.0116 208.385 21.5847C207.942 21.1413 207.351 20.9196 206.612 20.9196C205.791 20.9196 205.134 21.1741 204.641 21.6832C204.149 22.1923 203.902 22.9559 203.902 23.9741V30.6251H200.725V18.3085H203.902V19.6879C204.674 18.5384 205.898 17.9636 207.573 17.9636Z" fill="#1D1D1B"/>
<path d="M223.883 18.3085H226.987V30.0339C226.987 31.9388 226.355 33.3922 225.09 34.3939C223.842 35.3957 222.332 35.8966 220.558 35.8966C219.228 35.8966 218.054 35.642 217.035 35.1329C216.034 34.6238 215.262 33.8766 214.72 32.8913L217.43 31.3394C218.054 32.489 219.129 33.0637 220.656 33.0637C221.658 33.0637 222.446 32.801 223.021 32.2755C223.596 31.75 223.883 31.0028 223.883 30.0339V28.7037C222.947 29.9518 221.634 30.5758 219.942 30.5758C218.201 30.5758 216.74 29.9682 215.557 28.7529C214.391 27.5213 213.808 26.0269 213.808 24.2697C213.808 22.5289 214.4 21.0427 215.582 19.8111C216.764 18.5794 218.218 17.9636 219.942 17.9636C221.634 17.9636 222.947 18.5876 223.883 19.8357V18.3085ZM217.947 26.7084C218.604 27.3324 219.433 27.6444 220.435 27.6444C221.437 27.6444 222.258 27.3324 222.898 26.7084C223.555 26.0679 223.883 25.255 223.883 24.2697C223.883 23.3008 223.555 22.5043 222.898 21.8803C222.258 21.2398 221.437 20.9196 220.435 20.9196C219.433 20.9196 218.604 21.2398 217.947 21.8803C217.306 22.5043 216.986 23.3008 216.986 24.2697C216.986 25.255 217.306 26.0679 217.947 26.7084Z" fill="#1D1D1B"/>
<path d="M236.372 13.3818C238.737 13.3818 240.707 14.2111 242.284 15.8698C243.877 17.5284 244.673 19.573 244.673 22.0034C244.673 24.4339 243.877 26.4785 242.284 28.1371C240.707 29.7957 238.737 30.6251 236.372 30.6251H229.524V13.3818H236.372ZM236.372 27.3735C237.866 27.3735 239.082 26.8808 240.018 25.8955C240.954 24.8937 241.422 23.5964 241.422 22.0034C241.422 20.4105 240.954 19.1214 240.018 18.136C239.082 17.1343 237.866 16.6334 236.372 16.6334H232.923V27.3735H236.372Z" fill="#1D1D1B"/>
<path d="M248.021 16.8305C247.495 16.8305 247.035 16.6416 246.641 16.2639C246.264 15.8698 246.075 15.41 246.075 14.8844C246.075 14.3589 246.264 13.8991 246.641 13.505C247.035 13.1109 247.495 12.9138 248.021 12.9138C248.563 12.9138 249.022 13.1109 249.4 13.505C249.794 13.8991 249.991 14.3589 249.991 14.8844C249.991 15.41 249.794 15.8698 249.4 16.2639C249.022 16.6416 248.563 16.8305 248.021 16.8305ZM246.444 30.6251V18.3085H249.622V30.6251H246.444Z" fill="#1D1D1B"/>
<path d="M261.472 18.3085H264.576V30.0339C264.576 31.9388 263.944 33.3922 262.679 34.3939C261.431 35.3957 259.92 35.8966 258.147 35.8966C256.816 35.8966 255.642 35.642 254.624 35.1329C253.622 34.6238 252.851 33.8766 252.309 32.8913L255.018 31.3394C255.642 32.489 256.718 33.0637 258.245 33.0637C259.247 33.0637 260.035 32.801 260.61 32.2755C261.185 31.75 261.472 31.0028 261.472 30.0339V28.7037C260.536 29.9518 259.222 30.5758 257.531 30.5758C255.79 30.5758 254.329 29.9682 253.146 28.7529C251.98 27.5213 251.397 26.0269 251.397 24.2697C251.397 22.5289 251.988 21.0427 253.171 19.8111C254.353 18.5794 255.807 17.9636 257.531 17.9636C259.222 17.9636 260.536 18.5876 261.472 19.8357V18.3085ZM255.536 26.7084C256.192 27.3324 257.022 27.6444 258.023 27.6444C259.025 27.6444 259.846 27.3324 260.487 26.7084C261.144 26.0679 261.472 25.255 261.472 24.2697C261.472 23.3008 261.144 22.5043 260.487 21.8803C259.846 21.2398 259.025 20.9196 258.023 20.9196C257.022 20.9196 256.192 21.2398 255.536 21.8803C254.895 22.5043 254.575 23.3008 254.575 24.2697C254.575 25.255 254.895 26.0679 255.536 26.7084Z" fill="#1D1D1B"/>
<path d="M268.541 16.8305C268.016 16.8305 267.556 16.6416 267.162 16.2639C266.784 15.8698 266.595 15.41 266.595 14.8844C266.595 14.3589 266.784 13.8991 267.162 13.505C267.556 13.1109 268.016 12.9138 268.541 12.9138C269.083 12.9138 269.543 13.1109 269.921 13.505C270.315 13.8991 270.512 14.3589 270.512 14.8844C270.512 15.41 270.315 15.8698 269.921 16.2639C269.543 16.6416 269.083 16.8305 268.541 16.8305ZM266.965 30.6251V18.3085H270.142V30.6251H266.965Z" fill="#1D1D1B"/>
<path d="M279.603 21.363H276.82V26.4867C276.82 26.9137 276.927 27.2257 277.14 27.4227C277.354 27.6198 277.666 27.7348 278.076 27.7676C278.487 27.784 278.996 27.7758 279.603 27.743V30.6251C277.419 30.8714 275.876 30.6661 274.972 30.0092C274.086 29.3523 273.642 28.1782 273.642 26.4867V21.363H271.499V18.3085H273.642V15.8205L276.82 14.8598V18.3085H279.603V21.363Z" fill="#1D1D1B"/>
<path d="M290.327 18.3085H293.505V30.6251H290.327V29.1717C289.374 30.3705 288.036 30.9699 286.312 30.9699C284.669 30.9699 283.257 30.3459 282.075 29.0978C280.909 27.8333 280.326 26.2896 280.326 24.4668C280.326 22.6439 280.909 21.1084 282.075 19.8603C283.257 18.5958 284.669 17.9636 286.312 17.9636C288.036 17.9636 289.374 18.563 290.327 19.7618V18.3085ZM284.464 26.9793C285.105 27.6198 285.918 27.94 286.903 27.94C287.888 27.94 288.701 27.6198 289.342 26.9793C289.998 26.3225 290.327 25.4849 290.327 24.4668C290.327 23.4486 289.998 22.6193 289.342 21.9788C288.701 21.3219 287.888 20.9935 286.903 20.9935C285.918 20.9935 285.105 21.3219 284.464 21.9788C283.824 22.6193 283.503 23.4486 283.503 24.4668C283.503 25.4849 283.824 26.3225 284.464 26.9793Z" fill="#1D1D1B"/>
<path d="M295.893 30.6251V12.6428H299.071V30.6251H295.893Z" fill="#1D1D1B"/>
<path d="M301.487 30.6251V12.6428H304.665V30.6251H301.487Z" fill="#1D1D1B"/>
<path d="M315.111 18.3085H318.51L314.027 30.6251C313.386 32.3986 312.532 33.6796 311.465 34.4678C310.414 35.2725 309.1 35.6338 307.524 35.5517V32.5957C308.378 32.6121 309.051 32.4315 309.544 32.0538C310.053 31.6761 310.455 31.0685 310.751 30.2309L305.701 18.3085H309.174L312.376 26.5852L315.111 18.3085Z" fill="#1D1D1B"/>
</svg>
