<svg width="279" height="42" viewBox="0 0 279 42" fill="none" xmlns="http://www.w3.org/2000/svg">
<rect x="20.9999" y="1.41421" width="27.6985" height="27.6985" transform="rotate(45 20.9999 1.41421)" fill="#5271FF" stroke="#7ED957" stroke-width="2"/>
<path d="M49.2248 2.91271H29.1271L48.4966 20.6802L48.6423 21.4084L29.1271 38.8847H49.2248L69.3225 20.9715L49.2248 2.91271Z" fill="#7ED957" stroke="#E5E5E5" stroke-width="2"/>
<path d="M85.9459 11.7091V14.5542H81.8722V26.7969H78.8977V14.5542H74.8456V11.7091H85.9459Z" fill="white"/>
<path d="M88.4583 17.8736C88.717 17.1838 89.1409 16.6665 89.73 16.3217C90.3335 15.9768 91.0017 15.8044 91.7345 15.8044V18.9081C90.8867 18.8076 90.1252 18.98 89.4498 19.4254C88.7888 19.8709 88.4583 20.6109 88.4583 21.6455V26.7969H85.6778V16.0199H88.4583V17.8736Z" fill="white"/>
<path d="M100.72 16.0199H103.501V26.7969H100.72V25.5252C99.8868 26.5742 98.7157 27.0987 97.2069 27.0987C95.77 27.0987 94.5342 26.5527 93.4996 25.4606C92.4794 24.3541 91.9693 23.0034 91.9693 21.4084C91.9693 19.8134 92.4794 18.4699 93.4996 17.3778C94.5342 16.2714 95.77 15.7181 97.2069 15.7181C98.7157 15.7181 99.8868 16.2426 100.72 17.2916V16.0199ZM95.5903 23.6069C96.1508 24.1673 96.862 24.4475 97.7242 24.4475C98.5864 24.4475 99.2976 24.1673 99.858 23.6069C100.433 23.0322 100.72 22.2993 100.72 21.4084C100.72 20.5175 100.433 19.7919 99.858 19.2315C99.2976 18.6567 98.5864 18.3693 97.7242 18.3693C96.862 18.3693 96.1508 18.6567 95.5903 19.2315C95.0299 19.7919 94.7497 20.5175 94.7497 21.4084C94.7497 22.2993 95.0299 23.0322 95.5903 23.6069Z" fill="white"/>
<path d="M111.583 15.7181C112.761 15.7181 113.731 16.1133 114.493 16.9036C115.269 17.6939 115.657 18.786 115.657 20.1798V26.7969H112.876V20.5247C112.876 19.8062 112.682 19.2602 112.294 18.8866C111.906 18.4986 111.389 18.3046 110.742 18.3046C110.024 18.3046 109.449 18.5274 109.018 18.9728C108.587 19.4183 108.371 20.0864 108.371 20.9773V26.7969H105.591V16.0199H108.371V17.2269C109.047 16.2211 110.117 15.7181 111.583 15.7181Z" fill="white"/>
<path d="M120.165 19.0806C120.165 19.368 120.351 19.6051 120.725 19.7919C121.113 19.9643 121.58 20.1224 122.126 20.2661C122.672 20.3954 123.218 20.5678 123.764 20.7833C124.31 20.9845 124.77 21.3294 125.144 21.8179C125.532 22.3065 125.726 22.9172 125.726 23.65C125.726 24.7565 125.309 25.6115 124.475 26.215C123.656 26.8041 122.629 27.0987 121.393 27.0987C119.18 27.0987 117.672 26.2437 116.867 24.5338L119.281 23.1758C119.597 24.1099 120.301 24.5769 121.393 24.5769C122.385 24.5769 122.88 24.2679 122.88 23.65C122.88 23.3627 122.686 23.1327 122.299 22.9603C121.925 22.7735 121.465 22.6083 120.919 22.4646C120.373 22.3209 119.827 22.1413 119.281 21.9257C118.735 21.7102 118.268 21.3725 117.88 20.9127C117.506 20.4385 117.32 19.8493 117.32 19.1452C117.32 18.0819 117.707 17.2485 118.483 16.645C119.274 16.0271 120.251 15.7181 121.415 15.7181C122.291 15.7181 123.089 15.9193 123.807 16.3217C124.526 16.7096 125.093 17.27 125.51 18.0029L123.139 19.2961C122.794 18.5633 122.219 18.1969 121.415 18.1969C121.056 18.1969 120.754 18.2759 120.51 18.434C120.28 18.592 120.165 18.8076 120.165 19.0806Z" fill="white"/>
<path d="M132.754 14.08C131.231 13.9651 130.47 14.5758 130.47 15.9121V16.0199H132.754V18.6926H130.47V26.7969H127.689V18.6926H126.137V16.0199H127.689V15.9121C127.689 14.389 128.113 13.2322 128.961 12.4419C129.809 11.6516 131.073 11.3067 132.754 11.4073V14.08Z" fill="white"/>
<path d="M142.38 25.4606C141.273 26.5527 139.923 27.0987 138.328 27.0987C136.733 27.0987 135.382 26.5527 134.275 25.4606C133.183 24.3541 132.637 23.0034 132.637 21.4084C132.637 19.8134 133.183 18.4699 134.275 17.3778C135.382 16.2714 136.733 15.7181 138.328 15.7181C139.923 15.7181 141.273 16.2714 142.38 17.3778C143.486 18.4699 144.039 19.8134 144.039 21.4084C144.039 23.0034 143.486 24.3541 142.38 25.4606ZM136.237 23.5423C136.797 24.1027 137.494 24.3829 138.328 24.3829C139.161 24.3829 139.858 24.1027 140.418 23.5423C140.979 22.9819 141.259 22.2706 141.259 21.4084C141.259 20.5463 140.979 19.835 140.418 19.2746C139.858 18.7142 139.161 18.434 138.328 18.434C137.494 18.434 136.797 18.7142 136.237 19.2746C135.691 19.835 135.418 20.5463 135.418 21.4084C135.418 22.2706 135.691 22.9819 136.237 23.5423Z" fill="white"/>
<path d="M148.345 17.8736C148.604 17.1838 149.027 16.6665 149.617 16.3217C150.22 15.9768 150.888 15.8044 151.621 15.8044V18.9081C150.773 18.8076 150.012 18.98 149.336 19.4254C148.675 19.8709 148.345 20.6109 148.345 21.6455V26.7969H145.564V16.0199H148.345V17.8736Z" fill="white"/>
<path d="M164.736 15.7181C165.971 15.7181 166.956 16.1205 167.688 16.9252C168.436 17.7299 168.809 18.8076 168.809 20.1583V26.7969H166.029V20.3523C166.029 19.7056 165.871 19.2027 165.555 18.8435C165.239 18.4843 164.793 18.3046 164.218 18.3046C163.586 18.3046 163.09 18.513 162.731 18.9297C162.386 19.3464 162.214 19.9499 162.214 20.7402V26.7969H159.433V20.3523C159.433 19.7056 159.275 19.2027 158.959 18.8435C158.643 18.4843 158.198 18.3046 157.623 18.3046C157.005 18.3046 156.509 18.513 156.136 18.9297C155.776 19.3464 155.597 19.9499 155.597 20.7402V26.7969H152.816V16.0199H155.597V17.1623C156.243 16.1995 157.242 15.7181 158.593 15.7181C159.915 15.7181 160.892 16.2354 161.524 17.27C162.242 16.2354 163.313 15.7181 164.736 15.7181Z" fill="white"/>
<path d="M172.119 14.7267C171.659 14.7267 171.257 14.5614 170.912 14.2309C170.582 13.8861 170.416 13.4837 170.416 13.0239C170.416 12.5641 170.582 12.1617 170.912 11.8169C171.257 11.472 171.659 11.2996 172.119 11.2996C172.593 11.2996 172.996 11.472 173.326 11.8169C173.671 12.1617 173.844 12.5641 173.844 13.0239C173.844 13.4837 173.671 13.8861 173.326 14.2309C172.996 14.5614 172.593 14.7267 172.119 14.7267ZM170.74 26.7969V16.0199H173.52V26.7969H170.74Z" fill="white"/>
<path d="M181.626 15.7181C182.804 15.7181 183.774 16.1133 184.536 16.9036C185.312 17.6939 185.7 18.786 185.7 20.1798V26.7969H182.919V20.5247C182.919 19.8062 182.725 19.2602 182.337 18.8866C181.949 18.4986 181.432 18.3046 180.785 18.3046C180.067 18.3046 179.492 18.5274 179.061 18.9728C178.63 19.4183 178.414 20.0864 178.414 20.9773V26.7969H175.634V16.0199H178.414V17.2269C179.09 16.2211 180.16 15.7181 181.626 15.7181Z" fill="white"/>
<path d="M195.898 16.0199H198.614V26.2796C198.614 27.9465 198.061 29.2182 196.954 30.0947C195.862 30.9712 194.54 31.4095 192.988 31.4095C191.824 31.4095 190.797 31.1868 189.906 30.7413C189.029 30.2959 188.354 29.6421 187.88 28.7799L190.251 27.422C190.797 28.4279 191.738 28.9308 193.074 28.9308C193.951 28.9308 194.641 28.7009 195.144 28.2411C195.647 27.7812 195.898 27.1274 195.898 26.2796V25.1157C195.079 26.2078 193.929 26.7538 192.449 26.7538C190.926 26.7538 189.647 26.2222 188.613 25.1588C187.593 24.0811 187.082 22.7735 187.082 21.236C187.082 19.7128 187.6 18.4124 188.634 17.3347C189.669 16.257 190.941 15.7181 192.449 15.7181C193.929 15.7181 195.079 16.2642 195.898 17.3563V16.0199ZM190.703 23.3698C191.278 23.9159 192.004 24.1889 192.88 24.1889C193.757 24.1889 194.475 23.9159 195.036 23.3698C195.611 22.8094 195.898 22.0981 195.898 21.236C195.898 20.3882 195.611 19.6913 195.036 19.1452C194.475 18.5848 193.757 18.3046 192.88 18.3046C192.004 18.3046 191.278 18.5848 190.703 19.1452C190.143 19.6913 189.863 20.3882 189.863 21.236C189.863 22.0981 190.143 22.8094 190.703 23.3698Z" fill="white"/>
<path d="M206.825 11.7091C208.895 11.7091 210.619 12.4347 211.998 13.8861C213.392 15.3374 214.089 17.1263 214.089 19.253C214.089 21.3797 213.392 23.1687 211.998 24.62C210.619 26.0713 208.895 26.7969 206.825 26.7969H200.833V11.7091H206.825ZM206.825 23.9518C208.133 23.9518 209.196 23.5207 210.015 22.6586C210.834 21.782 211.244 20.6468 211.244 19.253C211.244 17.8592 210.834 16.7312 210.015 15.869C209.196 14.9925 208.133 14.5542 206.825 14.5542H203.808V23.9518H206.825Z" fill="white"/>
<path d="M217.018 14.7267C216.558 14.7267 216.156 14.5614 215.811 14.2309C215.481 13.8861 215.315 13.4837 215.315 13.0239C215.315 12.5641 215.481 12.1617 215.811 11.8169C216.156 11.472 216.558 11.2996 217.018 11.2996C217.492 11.2996 217.895 11.472 218.225 11.8169C218.57 12.1617 218.742 12.5641 218.742 13.0239C218.742 13.4837 218.57 13.8861 218.225 14.2309C217.895 14.5614 217.492 14.7267 217.018 14.7267ZM215.639 26.7969V16.0199H218.419V26.7969H215.639Z" fill="white"/>
<path d="M228.788 16.0199H231.504V26.2796C231.504 27.9465 230.951 29.2182 229.844 30.0947C228.752 30.9712 227.43 31.4095 225.878 31.4095C224.714 31.4095 223.687 31.1868 222.796 30.7413C221.92 30.2959 221.244 29.6421 220.77 28.7799L223.141 27.422C223.687 28.4279 224.628 28.9308 225.965 28.9308C226.841 28.9308 227.531 28.7009 228.034 28.2411C228.537 27.7812 228.788 27.1274 228.788 26.2796V25.1157C227.969 26.2078 226.82 26.7538 225.34 26.7538C223.816 26.7538 222.537 26.2222 221.503 25.1588C220.483 24.0811 219.973 22.7735 219.973 21.236C219.973 19.7128 220.49 18.4124 221.524 17.3347C222.559 16.257 223.831 15.7181 225.34 15.7181C226.82 15.7181 227.969 16.2642 228.788 17.3563V16.0199ZM223.594 23.3698C224.168 23.9159 224.894 24.1889 225.771 24.1889C226.647 24.1889 227.366 23.9159 227.926 23.3698C228.501 22.8094 228.788 22.0981 228.788 21.236C228.788 20.3882 228.501 19.6913 227.926 19.1452C227.366 18.5848 226.647 18.3046 225.771 18.3046C224.894 18.3046 224.168 18.5848 223.594 19.1452C223.033 19.6913 222.753 20.3882 222.753 21.236C222.753 22.0981 223.033 22.8094 223.594 23.3698Z" fill="white"/>
<path d="M234.974 14.7267C234.514 14.7267 234.112 14.5614 233.767 14.2309C233.436 13.8861 233.271 13.4837 233.271 13.0239C233.271 12.5641 233.436 12.1617 233.767 11.8169C234.112 11.472 234.514 11.2996 234.974 11.2996C235.448 11.2996 235.85 11.472 236.181 11.8169C236.526 12.1617 236.698 12.5641 236.698 13.0239C236.698 13.4837 236.526 13.8861 236.181 14.2309C235.85 14.5614 235.448 14.7267 234.974 14.7267ZM233.594 26.7969V16.0199H236.375V26.7969H233.594Z" fill="white"/>
<path d="M244.653 18.6926H242.217V23.1758C242.217 23.5495 242.311 23.8225 242.498 23.9949C242.684 24.1673 242.957 24.2679 243.317 24.2967C243.676 24.311 244.121 24.3038 244.653 24.2751V26.7969C242.742 27.0125 241.391 26.8329 240.601 26.2581C239.825 25.6833 239.437 24.6559 239.437 23.1758V18.6926H237.562V16.0199H239.437V13.8429L242.217 13.0023V16.0199H244.653V18.6926Z" fill="white"/>
<path d="M254.036 16.0199H256.817V26.7969H254.036V25.5252C253.203 26.5742 252.032 27.0987 250.523 27.0987C249.086 27.0987 247.85 26.5527 246.815 25.4606C245.795 24.3541 245.285 23.0034 245.285 21.4084C245.285 19.8134 245.795 18.4699 246.815 17.3778C247.85 16.2714 249.086 15.7181 250.523 15.7181C252.032 15.7181 253.203 16.2426 254.036 17.2916V16.0199ZM248.906 23.6069C249.467 24.1673 250.178 24.4475 251.04 24.4475C251.902 24.4475 252.613 24.1673 253.174 23.6069C253.749 23.0322 254.036 22.2993 254.036 21.4084C254.036 20.5175 253.749 19.7919 253.174 19.2315C252.613 18.6567 251.902 18.3693 251.04 18.3693C250.178 18.3693 249.467 18.6567 248.906 19.2315C248.346 19.7919 248.066 20.5175 248.066 21.4084C248.066 22.2993 248.346 23.0322 248.906 23.6069Z" fill="white"/>
<path d="M258.907 26.7969V11.0625H261.687V26.7969H258.907Z" fill="white"/>
<path d="M263.801 26.7969V11.0625H266.582V26.7969H263.801Z" fill="white"/>
<path d="M275.722 16.0199H278.696L274.774 26.7969C274.213 28.3488 273.466 29.4696 272.532 30.1594C271.612 30.8635 270.463 31.1796 269.083 31.1077V28.5213C269.831 28.5356 270.42 28.3776 270.851 28.0471C271.296 27.7166 271.648 27.1849 271.907 26.4521L267.488 16.0199H270.527L273.329 23.2621L275.722 16.0199Z" fill="white"/>
</svg>
